{"title":"Grand Masti (2013) 450MB DVDScr X264 MP4 (Desidhamal) ][VAMPIRE","uid":8923916,"size":466060458,"categoryP":"video","categoryS":"movies","magnet":"?xt=urn:btih:9d8df8f849af4401fc24a9d3f2ff62a0cd63d48b&amp;dn=Grand+Masti+%282013%29+450MB+DVDScr+X264+MP4+%28Desidhamal%29+%5D%5BVAMPIRE+&amp;tr=udp%3A%2F%2Ftracker.openbittorrent.com%3A80&amp;tr=udp%3A%2F%2Fopen.demonii.com%3A1337&amp;tr=udp%3A%2F%2Ftracker.coppersurfer.tk%3A6969&amp;tr=udp%3A%2F%2Fexodus.desync.com%3A6969","seeders":1,"leechers":0,"uploader":"bhoottt","files":10,"time":1379320523,"description":"Grand Masti (2013) 450MB DVDScr X264 MP4 (Desidhamal) ][VAMPIRE ROCK'S][\n\n\n[URL=http://www.tinyuploads.com/gallery/view/acb0ui][IMG]http://i.tinyuploads.com/acb0ui.jpg[/IMG][/URL]\n\n\n[URL=http://www.tinyuploads.com/gallery/view/1UXycc][IMG]http://i.tinyuploads.com/1UXycc.png[/IMG][/URL]\n[URL=http://www.tinyuploads.com/gallery/view/snp4LP][IMG]http://i.tinyuploads.com/snp4LP.png[/IMG][/URL]\n[URL=http://www.tinyuploads.com/gallery/view/PE2jrp][IMG]http://i.tinyuploads.com/PE2jrp.png[/IMG][/URL]\n[URL=http://www.tinyuploads.com/gallery/view/4YqgSs][IMG]http://i.tinyuploads.com/4YqgSs.png[/IMG][/URL]\n[URL=http://www.tinyuploads.com/gallery/view/9dmyDo][IMG]http://i.tinyuploads.com/9dmyDo.png[/IMG][/URL]\n[URL=http://www.tinyuploads.com/gallery/view/BBkZd2][IMG]http://i.tinyuploads.com/BBkZd2.png[/IMG][/URL]\n[URL=http://www.tinyuploads.com/gallery/view/cNsu2G][IMG]http://i.tinyuploads.com/cNsu2G.png[/IMG][/URL]\n[URL=http://www.tinyuploads.com/gallery/view/x2lGKw][IMG]http://i.tinyuploads.com/x2lGKw.png[/IMG][/URL]\n\n\n\nINFO\n\nGeneral\nCFormat                                   : MPEG-4\nFormat profile                           : Base Media\nCodec ID                                 : isom\nFile size                                : 442 MiB\nDuration                                 : 2h 13mn\nOverall bit rate mode                    : Variable\nOverall bit rate                         : 463 Kbps\nEncoded date                             : UTC 2013-09-04 19:39:27\nTagged date                              : UTC 2013-09-04 19:39:27\n\nVideo\nID                                       : 1\nFormat                                   : AVC\nFormat/Info                              : Advanced Video Codec\nFormat profile                           : &lt;a class=&quot;__cf_email__&quot; href=&quot;/cdn-cgi/l/email-protection&quot; data-cfemail=&quot;6129080609212d524f51&quot;&gt;[email&amp;#160;protected]&lt;/a&gt;&lt;script cf-hash='f9e31' type=&quot;text/javascript&quot;&gt;\n/* &lt;![CDATA[ */!function(){try{var t=&quot;currentScript&quot;in document?document.currentScript:function(){for(var t=document.getElementsByTagName(&quot;script&quot;),e=t.length;e--;)if(t[e].getAttribute(&quot;cf-hash&quot;))return t[e]}();if(t&amp;&amp;t.previousSibling){var e,r,n,i,c=t.previousSibling,a=c.getAttribute(&quot;data-cfemail&quot;);if(a){for(e=&quot;&quot;,r=parseInt(a.substr(0,2),16),n=2;a.length-n;n+=2)i=parseInt(a.substr(n,2),16)^r,e+=String.fromCharCode(i);e=document.createTextNode(e),c.parentNode.replaceChild(e,c)}}}catch(u){}}();/* ]]&gt; */&lt;/script&gt;\nFormat settings, CABAC                   : Yes\nFormat settings, ReFrames                : 4 frames\nCodec ID                                 : avc1\nCodec ID/Info                            : Advanced Video Coding\nDuration                                 : 2h 13mn\nBit rate                                 : 371 Kbps\nMaximum bit rate                         : 1 911 Kbps\nWidth                                    : 720 pixels\nHeight                                   : 256 pixels\nDisplay aspect ratio                     : 2.813\nFrame rate mode                          : Constant\nFrame rate                               : 29.970 fps\nColor space                              : YUV\nChroma subsampling                       : 4:2:0\nBit depth                                : 8 bits\nScan type                                : Progressive\nBits/(Pixel*Frame)                       : 0.067\nStream size                              : 354 MiB (80%)\nWriting library                          : x264 core 133 r2334 a3ac64b\nEncoding settings                        : cabac=1 // deblock=1:0:0 / analyse=0x3:0x113 / me=hex / subme=7 / psy=1 / psy_rd=1.00:0.00 // me_range=16 / chroma_me=1 / trellis=1 / 8x8dct=1 / cqm=0 / deadzone=21,11 / fast_pskip=1 / chroma_qp_offset=-2 / threads=3 / lookahead_threads=1 / sliced_threads=0 / nr=0 / decimate=1 / interlaced=0 / bluray_compat=0 / constrained_intra=0 / bframes=3 / b_pyramid=2 / b_adapt=1 / b_bias=0 / direct=1 / weightb=1 / open_gop=0 / weightp=2 / keyint=300 / keyint_min=29 / scenecut=40 / intra_refresh=0 / rc_lookahead=40 / rc=2pass / mbtree=1 / bitrate=371 / ratetol=1.0 / qcomp=0.60 / qpmin=0 / qpmax=69 / qpstep=4 / cplxblur=20.0 / qblur=0.5 / ip_ratio=1.40 / aq=1:1.00\nEncoded date                             : UTC 2013-09-04 12:23:29\nTagged date                              : UTC 2013-09-04 19:40:13\n\nAudio\nID                                       : 2\nFormat                                   : MPEG Audio\nFormat version                           : Version 1\nFormat profile                           : Layer 3\nMode                                     : Joint stereo\nMode extension                           : MS Stereo\nCodec ID                                 : 6B\nDuration                                 : 2h 13mn\nBit rate mode                            : Variable\nBit rate                                 : 88.6 Kbps\nNominal bit rate                         : 96.0 Kbps\nMaximum bit rate                         : 124 Kbps\nChannel(s)                               : 2 channels\nSampling rate                            : 32.0 KHz\nCompression mode                         : Lossy\nDelay relative to video                  : 67ms\nStream size                              : 84.6 MiB (19%)\nTitle                                    : mp3#trackID=&lt;a class=&quot;__cf_email__&quot; href=&quot;/cdn-cgi/l/email-protection&quot; data-cfemail=&quot;1627565146575526382338273b5253403b64736022242e25&quot;&gt;[email&amp;#160;protected]&lt;/a&gt;&lt;script cf-hash='f9e31' type=&quot;text/javascript&quot;&gt;\n/* &lt;![CDATA[ */!function(){try{var t=&quot;currentScript&quot;in document?document.currentScript:function(){for(var t=document.getElementsByTagName(&quot;script&quot;),e=t.length;e--;)if(t[e].getAttribute(&quot;cf-hash&quot;))return t[e]}();if(t&amp;&amp;t.previousSibling){var e,r,n,i,c=t.previousSibling,a=c.getAttribute(&quot;data-cfemail&quot;);if(a){for(e=&quot;&quot;,r=parseInt(a.substr(0,2),16),n=2;a.length-n;n+=2)i=parseInt(a.substr(n,2),16)^r,e+=String.fromCharCode(i);e=document.createTextNode(e),c.parentNode.replaceChild(e,c)}}}catch(u){}}();/* ]]&gt; */&lt;/script&gt;\nWriting library                          : LAME3.99r\nEncoding settings                        : -m j -V 4 -q 2 -lowpass 15.1 --abr 96\nEncoded date                             : UTC 2013-09-04 19:40:01\nTagged date                              : UTC 2013-09-04 19:40:13\n\n\n\nHit thanks if you like my RIP.....","torrent":{"xt":"urn:btih:9d8df8f849af4401fc24a9d3f2ff62a0cd63d48b","amp;dn":"Grand+Masti+%282013%29+450MB+DVDScr+X264+MP4+%28Desidhamal%29+%5D%5BVAMPIRE+","amp;tr":["udp%3A%2F%2Ftracker.openbittorrent.com%3A80","udp%3A%2F%2Fopen.demonii.com%3A1337","udp%3A%2F%2Ftracker.coppersurfer.tk%3A6969","udp%3A%2F%2Fexodus.desync.com%3A6969"],"infoHash":"9d8df8f849af4401fc24a9d3f2ff62a0cd63d48b","infoHashBuffer":{"type":"Buffer","data":[157,141,248,248,73,175,68,1,252,36,169,211,242,255,98,160,205,99,212,139]},"announce":[],"urlList":[]}}